<?xml version="1.0" standalone="yes"?>

<svg version="1.1" viewBox="0.0 0.0 960.0 960.0" fill="none" stroke="none" stroke-linecap="square" stroke-miterlimit="10" xmlns="http://www.w3.org/2000/svg" xmlns:xlink="http://www.w3.org/1999/xlink"><clipPath id="p.0"><path d="m0 0l960.0 0l0 960.0l-960.0 0l0 -960.0z" clip-rule="nonzero"></path></clipPath><g clip-path="url(#p.0)"><path fill="#000000" fill-opacity="0.0" d="m0 0l960.0 0l0 960.0l-960.0 0z" fill-rule="nonzero"></path><path fill="#000000" fill-opacity="0.0" d="m317.07086 148.90027l0 0c0 -82.2339 72.94586 -148.89764 162.92914 -148.89764l0 0c89.98328 0 162.92914 66.66374 162.92914 148.89764l0 0c0 82.23389 -72.94586 148.89764 -162.92914 148.89764l0 0c-89.98328 0 -162.92914 -66.66376 -162.92914 -148.89764z" fill-rule="nonzero"></path><path stroke="#000000" stroke-width="2.0" stroke-linejoin="round" stroke-linecap="butt" d="m317.07086 148.90027l0 0c0 -82.2339 72.94586 -148.89764 162.92914 -148.89764l0 0c89.98328 0 162.92914 66.66374 162.92914 148.89764l0 0c0 82.23389 -72.94586 148.89764 -162.92914 148.89764l0 0c-89.98328 0 -162.92914 -66.66376 -162.92914 -148.89764z" fill-rule="nonzero"></path><path fill="#000000" fill-opacity="0.0" d="m477.36438 305.3388l5.322815 403.81104" fill-rule="nonzero"></path><path stroke="#000000" stroke-width="2.0" stroke-linejoin="round" stroke-linecap="butt" d="m477.36438 305.3388l5.322815 403.81104" fill-rule="nonzero"></path><path fill="#000000" fill-opacity="0.0" d="m338.07498 529.8532l139.3071 -232.06302" fill-rule="nonzero"></path><path stroke="#000000" stroke-width="2.0" stroke-linejoin="round" stroke-linecap="butt" d="m338.07498 529.8532l139.3071 -232.06302" fill-rule="nonzero"></path><path fill="#000000" fill-opacity="0.0" d="m477.36438 301.56543l149.82678 222.67719" fill-rule="nonzero"></path><path stroke="#000000" stroke-width="2.0" stroke-linejoin="round" stroke-linecap="butt" d="m477.36438 301.56543l149.82678 222.67719" fill-rule="nonzero"></path><path fill="#000000" fill-opacity="0.0" d="m477.36438 701.54065l126.17322 258.45673" fill-rule="nonzero"></path><path stroke="#000000" stroke-width="2.0" stroke-linejoin="round" stroke-linecap="butt" d="m477.36438 701.54065l126.17322 258.45673" fill-rule="nonzero"></path><path fill="#000000" fill-opacity="0.0" d="m482.62057 707.2007l-107.77954 247.18109" fill-rule="nonzero"></path><path stroke="#000000" stroke-width="2.0" stroke-linejoin="round" stroke-linecap="butt" d="m482.62057 707.2007l-107.77954 247.18109" fill-rule="nonzero"></path></g></svg>

