<?xml version="1.0" standalone="yes"?>

<svg version="1.1" viewBox="0.0 0.0 960.0 960.0" fill="none" stroke="none" stroke-linecap="square" stroke-miterlimit="10" xmlns="http://www.w3.org/2000/svg" xmlns:xlink="http://www.w3.org/1999/xlink"><clipPath id="p.0"><path d="m0 0l960.0 0l0 960.0l-960.0 0l0 -960.0z" clip-rule="nonzero"></path></clipPath><g clip-path="url(#p.0)"><path fill="#000000" fill-opacity="0.0" d="m0 0l960.0 0l0 960.0l-960.0 0z" fill-rule="nonzero"></path><path fill="#000000" fill-opacity="0.0" d="m404.9081 634.0761l0 0c-78.03305 82.07733 -209.24535 77.12781 -293.07086 -11.055115c-83.825516 -88.18292 -88.52124 -226.20612 -10.48819 -308.28348c78.03306 -82.07733 209.24533 -77.12778 293.07086 11.055145l-141.29134 148.61417z" fill-rule="nonzero"></path><path stroke="#000000" stroke-width="2.0" stroke-linejoin="round" stroke-linecap="butt" d="m404.9081 634.0761l0 0c-78.03305 82.07733 -209.24535 77.12781 -293.07086 -11.055115c-83.825516 -88.18292 -88.52124 -226.20612 -10.48819 -308.28348c78.03306 -82.07733 209.24533 -77.12778 293.07086 11.055145l-141.29134 148.61417z" fill-rule="nonzero"></path><path fill="#000000" fill-opacity="0.0" d="m616.51575 416.0578l0 257.03937" fill-rule="nonzero"></path><path stroke="#000000" stroke-width="2.0" stroke-linejoin="round" stroke-linecap="butt" d="m616.51575 416.0578l0 257.03937" fill-rule="nonzero"></path><path fill="#000000" fill-opacity="0.0" d="m920.00995 416.0578l0 257.03937" fill-rule="nonzero"></path><path stroke="#000000" stroke-width="2.0" stroke-linejoin="round" stroke-linecap="butt" d="m920.00995 416.0578l0 257.03937" fill-rule="nonzero"></path><path fill="#000000" fill-opacity="0.0" d="m616.7656 438.47717l0 0c-3.1692505 -55.894775 23.888184 -109.11801 70.637024 -138.94604c46.74884 -29.828064 105.799805 -31.546265 154.1601 -4.485565c48.36035 27.060669 78.38611 78.622955 78.38611 134.60995l-151.71655 0z" fill-rule="nonzero"></path><path fill="#000000" fill-opacity="0.0" d="m616.7656 438.47717l0 0c-3.1692505 -55.894775 23.888184 -109.11801 70.637024 -138.94604c46.74884 -29.828064 105.799805 -31.546265 154.1601 -4.485565c48.36035 27.060669 78.38611 78.622955 78.38611 134.60995" fill-rule="nonzero"></path><path stroke="#000000" stroke-width="2.0" stroke-linejoin="round" stroke-linecap="butt" d="m616.7656 438.47717l0 0c-3.1692505 -55.894775 23.888184 -109.11801 70.637024 -138.94604c46.74884 -29.828064 105.799805 -31.546265 154.1601 -4.485565c48.36035 27.060669 78.38611 78.622955 78.38611 134.60995" fill-rule="nonzero"></path><path fill="#000000" fill-opacity="0.0" d="m616.51575 673.0903c18.503967 0 27.75592 -13.637817 37.007874 -27.275574c9.251953 -13.637817 18.503967 -27.275635 37.007874 -27.275635" fill-rule="nonzero"></path><path stroke="#000000" stroke-width="2.0" stroke-linejoin="round" stroke-linecap="butt" d="m616.51575 673.0903c18.503967 0 27.75592 -13.637817 37.007874 -27.275574c9.251953 -13.637817 18.503967 -27.275635 37.007874 -27.275635" fill-rule="nonzero"></path><path fill="#000000" fill-opacity="0.0" d="m690.53876 616.61914c19.440918 0 29.161377 14.59845 38.881836 29.1969c9.72052 14.598389 19.440979 29.196838 38.881897 29.196838" fill-rule="nonzero"></path><path stroke="#000000" stroke-width="2.0" stroke-linejoin="round" stroke-linecap="butt" d="m690.53876 616.61914c19.440918 0 29.161377 14.59845 38.881836 29.1969c9.72052 14.598389 19.440979 29.196838 38.881897 29.196838" fill-rule="nonzero"></path><path fill="#000000" fill-opacity="0.0" d="m768.292 673.0903c18.503967 0 27.75592 -13.637817 37.007874 -27.275574c9.251953 -13.637817 18.503967 -27.275635 37.007874 -27.275635" fill-rule="nonzero"></path><path stroke="#000000" stroke-width="2.0" stroke-linejoin="round" stroke-linecap="butt" d="m768.292 673.0903c18.503967 0 27.75592 -13.637817 37.007874 -27.275574c9.251953 -13.637817 18.503967 -27.275635 37.007874 -27.275635" fill-rule="nonzero"></path><path fill="#000000" fill-opacity="0.0" d="m842.31494 616.61914c19.440979 0 29.161438 14.59845 38.881897 29.1969c9.72052 14.598389 19.440979 29.196838 38.881897 29.196838" fill-rule="nonzero"></path><path stroke="#000000" stroke-width="2.0" stroke-linejoin="round" stroke-linecap="butt" d="m842.31494 616.61914c19.440979 0 29.161438 14.59845 38.881897 29.1969c9.72052 14.598389 19.440979 29.196838 38.881897 29.196838" fill-rule="nonzero"></path><path fill="#000000" fill-opacity="0.0" d="m686.8376 412.1854l0 0c0 -15.063904 11.612366 -27.275604 25.937012 -27.275604l0 0c6.8789062 0 13.476074 2.8736877 18.34021 7.9888306c4.8641357 5.1151733 7.5968018 12.052826 7.5968018 19.286774l0 0c0 15.063873 -11.612427 27.275574 -25.937012 27.275574l0 0c-14.324646 0 -25.937012 -12.2117 -25.937012 -27.275574z" fill-rule="nonzero"></path><path stroke="#000000" stroke-width="2.0" stroke-linejoin="round" stroke-linecap="butt" d="m686.8376 412.1854l0 0c0 -15.063904 11.612366 -27.275604 25.937012 -27.275604l0 0c6.8789062 0 13.476074 2.8736877 18.34021 7.9888306c4.8641357 5.1151733 7.5968018 12.052826 7.5968018 19.286774l0 0c0 15.063873 -11.612427 27.275574 -25.937012 27.275574l0 0c-14.324646 0 -25.937012 -12.2117 -25.937012 -27.275574z" fill-rule="nonzero"></path><path fill="#000000" fill-opacity="0.0" d="m809.03375 412.1854l0 0c0 -15.063904 11.612427 -27.275604 25.937012 -27.275604l0 0c6.8789673 0 13.476135 2.8736877 18.340271 7.9888306c4.8641357 5.1151733 7.5967407 12.052826 7.5967407 19.286774l0 0c0 15.063873 -11.612366 27.275574 -25.937012 27.275574l0 0c-14.324585 0 -25.937012 -12.2117 -25.937012 -27.275574z" fill-rule="nonzero"></path><path stroke="#000000" stroke-width="2.0" stroke-linejoin="round" stroke-linecap="butt" d="m809.03375 412.1854l0 0c0 -15.063904 11.612427 -27.275604 25.937012 -27.275604l0 0c6.8789673 0 13.476135 2.8736877 18.340271 7.9888306c4.8641357 5.1151733 7.5967407 12.052826 7.5967407 19.286774l0 0c0 15.063873 -11.612366 27.275574 -25.937012 27.275574l0 0c-14.324585 0 -25.937012 -12.2117 -25.937012 -27.275574z" fill-rule="nonzero"></path><path fill="#000000" d="m708.9862 412.2132l0 0c0 -8.645233 6.6557617 -15.653564 14.86615 -15.653564l0 0c3.942749 0 7.723999 1.649231 10.511902 4.584839c2.7879639 2.935608 4.354187 6.917145 4.354187 11.068726l0 0c0 8.645203 -6.6557617 15.653534 -14.866089 15.653534l0 0c-8.210388 0 -14.86615 -7.0083313 -14.86615 -15.653534z" fill-rule="nonzero"></path><path stroke="#000000" stroke-width="2.0" stroke-linejoin="round" stroke-linecap="butt" d="m708.9862 412.2132l0 0c0 -8.645233 6.6557617 -15.653564 14.86615 -15.653564l0 0c3.942749 0 7.723999 1.649231 10.511902 4.584839c2.7879639 2.935608 4.354187 6.917145 4.354187 11.068726l0 0c0 8.645203 -6.6557617 15.653534 -14.866089 15.653534l0 0c-8.210388 0 -14.86615 -7.0083313 -14.86615 -15.653534z" fill-rule="nonzero"></path><path fill="#000000" d="m831.1824 412.2132l0 0c0 -8.645233 6.6558228 -15.653564 14.86615 -15.653564l0 0c3.942749 0 7.723999 1.649231 10.511963 4.584839c2.7879028 2.935608 4.354187 6.917145 4.354187 11.068726l0 0c0 8.645203 -6.6558228 15.653534 -14.86615 15.653534l0 0c-8.210327 0 -14.86615 -7.0083313 -14.86615 -15.653534z" fill-rule="nonzero"></path><path stroke="#000000" stroke-width="2.0" stroke-linejoin="round" stroke-linecap="butt" d="m831.1824 412.2132l0 0c0 -8.645233 6.6558228 -15.653564 14.86615 -15.653564l0 0c3.942749 0 7.723999 1.649231 10.511963 4.584839c2.7879028 2.935608 4.354187 6.917145 4.354187 11.068726l0 0c0 8.645203 -6.6558228 15.653534 -14.86615 15.653534l0 0c-8.210327 0 -14.86615 -7.0083313 -14.86615 -15.653534z" fill-rule="nonzero"></path></g></svg>

