<?xml version="1.0" standalone="yes"?>

<svg version="1.1" viewBox="0.0 0.0 960.0 960.0" fill="none" stroke="none" stroke-linecap="square" stroke-miterlimit="10" xmlns="http://www.w3.org/2000/svg" xmlns:xlink="http://www.w3.org/1999/xlink"><clipPath id="p.0"><path d="m0 0l960.0 0l0 960.0l-960.0 0l0 -960.0z" clip-rule="nonzero"></path></clipPath><g clip-path="url(#p.0)"><path fill="#000000" fill-opacity="0.0" d="m0 0l960.0 0l0 960.0l-960.0 0z" fill-rule="nonzero"></path><path fill="#000000" fill-opacity="0.0" d="m960.0 480.0105l-193.69995 68.88428l0 -137.76855zm-140.6222 -339.42224l-88.23297 185.69316l-97.41577 -97.41579zm-339.3778 -140.57777l68.88428 193.69995l-137.76855 0zm-339.42224 140.57777l185.69316 88.277374l-97.41579 97.41579zm-140.57777 339.42224l193.69995 -68.88428l0 137.76855zm140.57777 339.3778l88.277374 -185.64874l97.41579 97.41577zm339.42224 140.6222l-68.88428 -193.69995l137.76855 0zm339.3778 -140.6222l-185.64874 -88.23297l97.41577 -97.41577zm-579.3778 -339.3778l0 0c0 -132.54834 107.45166 -240.0 240.0 -240.0c132.54834 0 240.0 107.45166 240.0 240.0c0 132.54834 -107.45166 240.0 -240.0 240.0c-132.54834 0 -240.0 -107.45166 -240.0 -240.0z" fill-rule="nonzero"></path><path stroke="#000000" stroke-width="2.0" stroke-linejoin="round" stroke-linecap="butt" d="m960.0 480.0105l-193.69995 68.88428l0 -137.76855zm-140.6222 -339.42224l-88.23297 185.69316l-97.41577 -97.41579zm-339.3778 -140.57777l68.88428 193.69995l-137.76855 0zm-339.42224 140.57777l185.69316 88.277374l-97.41579 97.41579zm-140.57777 339.42224l193.69995 -68.88428l0 137.76855zm140.57777 339.3778l88.277374 -185.64874l97.41579 97.41577zm339.42224 140.6222l-68.88428 -193.69995l137.76855 0zm339.3778 -140.6222l-185.64874 -88.23297l97.41577 -97.41577zm-579.3778 -339.3778l0 0c0 -132.54834 107.45166 -240.0 240.0 -240.0c132.54834 0 240.0 107.45166 240.0 240.0c0 132.54834 -107.45166 240.0 -240.0 240.0c-132.54834 0 -240.0 -107.45166 -240.0 -240.0z" fill-rule="nonzero"></path></g></svg>

